<svg xmlns="http://www.w3.org/2000/svg" data-name="Layer 1" viewBox="0 0 512 512"><path fill="#918291" d="M411.5,328.5h-311V241.22a43.54,43.54,0,0,1,31.43-41.82L256,163.5l124.07,35.9a43.54,43.54,0,0,1,31.43,41.82Z"/><rect width="358" height="30" x="77" y="474.5" fill="#cbc4cc" rx="15"/><rect width="358" height="225" x="77" y="249.5" fill="#f3f0f3" rx="30"/><path fill="#e2dee2" d="M405,249.5h-1.71a30.09,30.09,0,0,1,1.71,10h0c0,107.7-87.3,195-195,195H78.71a30,30,0,0,0,28.29,20H405a30,30,0,0,0,30-30v-165A30,30,0,0,0,405,249.5Z"/><path fill="#918291" d="M301,363.21v26a39.57,39.57,0,0,1-37.45,39.51c-.7,0-1.4,0-2.11,0H250.61c-.71,0-1.41,0-2.11,0a39.57,39.57,0,0,1-37.45-39.51v-26a38.27,38.27,0,0,1,.31-4.93,39.57,39.57,0,0,1,39.25-34.63h10.78A39.57,39.57,0,0,1,301,363.21Z"/><path fill="#7a6d79" d="M300.57 357.75l-.26.53H211.36a39.57 39.57 0 0 1 39.25-34.63h10.78A39.57 39.57 0 0 1 300.57 357.75zM246.49 203.06h39a34.77 34.77 0 0 0 32.22-21.7L256 163.5l-43.41 12.56A34.78 34.78 0 0 0 246.49 203.06z"/><path fill="#ffcebf" d="M275.51,183.06h-39A34.78,34.78,0,0,1,202,152.64L190.83,64.5H321.17L310,152.64A34.78,34.78,0,0,1,275.51,183.06Z"/><path fill="#918291" d="M256,14.27V118.12L156.62,84.8a4,4,0,0,1,.1-7.62l18.92-5.79,12.64-3.87,3.95-6.59,28.57-47.6A12,12,0,0,1,234.45,8Z"/><path fill="#7a6d79" d="M355.38,84.8,256,118.12V14.27L277.55,8a12,12,0,0,1,13.65,5.35l28.55,47.58,4,6.61,11.73,3.59,19.83,6.07A4,4,0,0,1,355.38,84.8Z"/><path fill="#685e68" d="M335.45,71.11A7.36,7.36,0,0,1,333,72.44l-74.7,23.79a7.48,7.48,0,0,1-1.71.33l-.57,0h-.06l-.57,0a7.51,7.51,0,0,1-1.65-14.63l2.24-.71,0,0,63.75-20.29,4,6.61Z"/><path fill="#7a6d79" d="M256,81.23V96.58h-.06l-.57,0a7.48,7.48,0,0,1-1.71-.33l-78-24.84,12.64-3.87,3.95-6.59L256,81.22Z"/><path d="M442.5,279.5A37.56,37.56,0,0,0,419,244.72v-3.5a51.28,51.28,0,0,0-36.85-49l-71.36-20.65a42,42,0,0,0,6.67-18l6.36-50.29,33.94-11.38a11.5,11.5,0,0,0-.29-21.9l-28.8-8.82-31-51.72A19.51,19.51,0,0,0,275.45.78L256,6.45,236.55.78a19.51,19.51,0,0,0-22.18,8.69l-31,51.72L154.53,70h0a11.5,11.5,0,0,0-.28,21.9l33.94,11.38,6.36,50.29a42,42,0,0,0,6.67,18L129.84,192.2a51.28,51.28,0,0,0-36.84,49v3.5A37.56,37.56,0,0,0,69.5,279.5v165a37.36,37.36,0,0,0,10.5,26A22.49,22.49,0,0,0,92,512H420a22.49,22.49,0,0,0,12-41.52,37.36,37.36,0,0,0,10.5-26ZM263.5,19.89l16.15-4.71a4.5,4.5,0,0,1,5.12,2l27.64,46.06L263.5,78.82Zm0,74.67,60.26-19.18,18.89,5.78L263.5,107.69Zm-9.84,30.68a8.08,8.08,0,0,0,1,.24l.18,0a7.85,7.85,0,0,0,1.19.1c.21,0,.43,0,.65-.05s.34,0,.52,0,.26-.06.39-.09a6.66,6.66,0,0,0,.77-.19h.05L308,108.58l-5.45,43.12a27.34,27.34,0,0,1-27.07,23.86h-39a27.34,27.34,0,0,1-27.07-23.86L204,108.58l49.65,16.65Zm-26.43-108a4.5,4.5,0,0,1,5.12-2l16.15,4.71v59L199.58,63.27Zm-57.88,64,18.86-5.77L248.5,94.58v13.11ZM108,241.22a36.22,36.22,0,0,1,26-34.62l79.36-23a42.07,42.07,0,0,0,23.12,6.92h39a42.07,42.07,0,0,0,23.12-6.92l79.35,23a36.22,36.22,0,0,1,26,34.62V242H108ZM420,497H92a7.5,7.5,0,0,1,0-15H420a7.5,7.5,0,0,1,0,15Zm7.5-52.5A22.52,22.52,0,0,1,405,467H107a22.52,22.52,0,0,1-22.5-22.5v-165A22.53,22.53,0,0,1,102,257.58l.21-.05A22.55,22.55,0,0,1,107,257H405a22.36,22.36,0,0,1,4.87.54l.16,0A22.54,22.54,0,0,1,427.5,279.5ZM331,323a7.5,7.5,0,0,0-15,0,27.76,27.76,0,0,1-11.15,22.24,47.38,47.38,0,0,0-16.7-20.68,42.8,42.8,0,0,0,20-36.19,7.5,7.5,0,0,0-15,0,27.81,27.81,0,0,1-27.79,27.79H246.63a27.81,27.81,0,0,1-27.79-27.79,7.5,7.5,0,0,0-15,0,42.8,42.8,0,0,0,20,36.19,47.38,47.38,0,0,0-16.7,20.68A27.76,27.76,0,0,1,196,323a7.5,7.5,0,0,0-15,0,42.84,42.84,0,0,0,22.64,37.74c0,.82-.07,1.65-.07,2.48v5.51H188.48a7.5,7.5,0,0,0,0,15h15.07v5.5a47.16,47.16,0,0,0,.75,8.29A42.61,42.61,0,0,0,181,435.64a7.5,7.5,0,0,0,15,0,27.68,27.68,0,0,1,13.39-23.79,47.08,47.08,0,0,0,41.24,24.43h10.78a47.1,47.1,0,0,0,41.25-24.43A27.65,27.65,0,0,1,316,435.64a7.5,7.5,0,0,0,15,0,42.59,42.59,0,0,0-23.32-38.13,47.16,47.16,0,0,0,.75-8.29v-5.5h15.07a7.5,7.5,0,0,0,0-15H308.45v-5.51c0-.83,0-1.66-.07-2.48A42.84,42.84,0,0,0,331,323ZM248.5,421.2a32.1,32.1,0,0,1-29.95-32V365.45a43,43,0,0,0,5.22.33H248.5Zm-24.73-70.42a25.84,25.84,0,0,1-2.65-.13,32.11,32.11,0,0,1,29.49-19.5h10.78a32.11,32.11,0,0,1,29.49,19.5,25.84,25.84,0,0,1-2.65.13Zm69.68,38.44a31.72,31.72,0,0,1-1.35,9.19,7.89,7.89,0,0,0-.54,1.3,7.52,7.52,0,0,0-.22.91A32.13,32.13,0,0,1,263.5,421.2V365.78h24.73a43,43,0,0,0,5.22-.33Z"/></svg>